<?xml version="1.0" encoding="UTF-8"?>
<svg id="Capa_1" xmlns="http://www.w3.org/2000/svg" version="1.1" viewBox="0 0 20 20">
  <!-- Generator: Adobe Illustrator 30.0.0, SVG Export Plug-In . SVG Version: 2.1.1 Build 123)  -->
  <defs>
    <style>
      .st0 {
        fill: #444;
      }

      .st1 {
        fill: none;
        stroke: #444;
      }
    </style>
  </defs>
  <rect class="st0" x="5.7" y="14.3" width="1" height="1"/>
  <rect class="st0" x="8.4" y="14.3" width="1" height="1"/>
  <rect class="st0" x="11.1" y="14.3" width="1" height="1"/>
  <rect class="st0" x="13.8" y="14.3" width="1" height="1"/>
  <rect class="st0" x="5.7" y="11.2" width="1" height="1"/>
  <rect class="st0" x="8.4" y="11.2" width="1" height="1"/>
  <rect class="st0" x="11.1" y="11.2" width="1" height="1"/>
  <rect class="st0" x="13.8" y="11.2" width="1" height="1"/>
  <rect class="st0" x="5.7" y="8.1" width="1" height="1"/>
  <rect class="st0" x="8.4" y="8.1" width="1" height="1"/>
  <rect class="st0" x="11.1" y="8.1" width="1" height="1"/>
  <rect class="st0" x="13.8" y="8.1" width="1" height="1"/>
  <rect class="st0" x="5.7" y="5" width="1" height="1"/>
  <rect class="st0" x="8.4" y="5" width="1" height="1"/>
  <rect class="st0" x="11.1" y="5" width="1" height="1"/>
  <rect class="st0" x="13.8" y="5" width="1" height="1"/>
  <rect class="st1" x="2.5" y="2.5" width="15" height="15"/>
</svg>