<?xml version="1.0" encoding="UTF-8"?>
<svg id="Capa_1" xmlns="http://www.w3.org/2000/svg" version="1.1" viewBox="0 0 30 30">
  <!-- Generator: Adobe Illustrator 30.0.0, SVG Export Plug-In . SVG Version: 2.1.1 Build 123)  -->
  <defs>
    <style>
      .st0 {
        fill: #444;
      }

      .st1 {
        fill: none;
        stroke: #444;
        stroke-width: 2px;
      }
    </style>
  </defs>
  <rect class="st0" x="7.5" y="7.1" width="2" height="2" transform="translate(.4 16.6) rotate(-90)"/>
  <rect class="st0" x="14" y="7.1" width="2" height="2" transform="translate(6.9 23.1) rotate(-90)"/>
  <rect class="st0" x="20.5" y="7.1" width="2" height="2" transform="translate(13.4 29.6) rotate(-90)"/>
  <rect class="st0" x="7.5" y="11.3" width="2" height="2" transform="translate(-3.8 20.8) rotate(-90)"/>
  <rect class="st0" x="14" y="11.3" width="2" height="2" transform="translate(2.7 27.3) rotate(-90)"/>
  <rect class="st0" x="20.5" y="11.3" width="2" height="2" transform="translate(9.2 33.8) rotate(-90)"/>
  <rect class="st0" x="7.5" y="15.6" width="2" height="2" transform="translate(-8.1 25.1) rotate(-90)"/>
  <rect class="st0" x="14" y="15.6" width="2" height="2" transform="translate(-1.6 31.6) rotate(-90)"/>
  <rect class="st0" x="20.5" y="15.6" width="2" height="2" transform="translate(4.9 38.1) rotate(-90)"/>
  <rect class="st0" x="7.5" y="19.8" width="2" height="2" transform="translate(-12.3 29.3) rotate(-90)"/>
  <rect class="st0" x="14" y="19.8" width="2" height="2" transform="translate(-5.8 35.8) rotate(-90)"/>
  <rect class="st0" x="20.5" y="19.8" width="2" height="2" transform="translate(.7 42.3) rotate(-90)"/>
  <rect class="st1" x="3" y="3.9" width="24" height="22"/>
</svg>